 http://www.scenespeeds.com/

Description

General Information

Complete name : Rogue River (2012) DVDRip XviD BBnRG.avi
Format : AVI
Format/Info : Audio Video Interleave
File size : 1.08 GiB
Duration : 1h 17mn
Overall bit rate : 1 991 Kbps

Video
ID : 0
Format : MPEG-4 Visual
Format profile : Advanced Simple@L5
Format settings, BVOP : 2
Format settings, QPel : Yes
Format settings, GMC : No warppoints
Format settings, Matrix : Default (H.263)
Codec ID : XVID
Codec ID/Hint : XviD
Duration : 1h 17mn
Bit rate : 1 599 Kbps
Width : 720 pixels
Height : 400 pixels
Display aspect ratio : 16:9
Frame rate : 25.000 fps
Color space : YUV
Chroma subsampling : 4:2:0
Bit depth : 8 bits
Scan type : Progressive
Compression mode : Lossy
Bits/(Pixel*Frame) : 0.222
Stream size : 888 MiB (80%)
Writing library : XviD 1.2.1 (UTC 2008-12-04)

Audio
ID : 1
Format : AC-3
Format/Info : Audio Coding 3
Mode extension : CM (complete main)
Codec ID : 2000
Duration : 1h 17mn
Bit rate mode : Constant
Bit rate : 384 Kbps
Channel(s) : 6 channels
Channel positions : Front: L C R, Side: L R, LFE
Sampling rate : 48.0 KHz
Bit depth : 16 bits
Compression mode : Lossy
Stream size : 213 MiB (19%)
Alignment : Aligned on interleaves
Interleave, duration : 64 ms (1.60 video frames)
Interleave, preload duration : 192 ms
Title : Rogue River (2012) BBnRG
Notes

Encoder: FridayToker
Source(s): DVDR-KiK (thanks)

Another fine release from BBnRG

Summary

Horror | Thriller - 11 May 2012 (USA)

While scattering her father ashes at a remote part of Oregon's beautiful Rogue River, Marra (Michelle Page) car is towed away. Stranded, she accepts a ride from a kind passerby Jon (Bill Moseley).A quick detour leads to Jon cabin deep in the woods, where his wife Lea quickly capitivates Marra and convices her to spend the night.However, Marra world soon becomes a harrowing nightmare as Jon and Lea reveal their true colours and the night unfolds into a shocking and spine -chilling sequence of horrors with a climax that will leave your nerves stripped bare!

IMDb Link: 
http://www.imdb.com/title/tt1560978/ 
  
http://www.scenespeeds.com/	